<svg width="30" height="30" viewBox="0 0 30 30" fill="none" xmlns="http://www.w3.org/2000/svg">
<path d="M3.1361 29.827C2.94771 29.8254 2.76192 29.7828 2.59161 29.7023C2.4213 29.6218 2.27052 29.5052 2.14973 29.3606C2.02893 29.216 1.941 29.0469 1.89203 28.865C1.84306 28.6831 1.83421 28.4927 1.8661 28.307L2.3261 25.647L0.386096 23.767C0.214557 23.5975 0.0935747 23.3835 0.0366815 23.1491C-0.0202117 22.9147 -0.0107723 22.6691 0.0639438 22.4398C0.13866 22.2104 0.275706 22.0064 0.459754 21.8505C0.643802 21.6946 0.867593 21.593 1.1061 21.557L3.7761 21.167L4.9961 18.757C5.10461 18.5425 5.27048 18.3623 5.47526 18.2364C5.68004 18.1105 5.91571 18.0439 6.1561 18.0439C6.39648 18.0439 6.63216 18.1105 6.83694 18.2364C7.04172 18.3623 7.20758 18.5425 7.3161 18.757L8.5061 21.177L11.1761 21.567C11.4146 21.603 11.6384 21.7046 11.8224 21.8605C12.0065 22.0164 12.1435 22.2204 12.2182 22.4498C12.293 22.6791 12.3024 22.9247 12.2455 23.1591C12.1886 23.3935 12.0676 23.6075 11.8961 23.777L9.9661 25.657L10.4261 28.317C10.4662 28.5552 10.4391 28.7999 10.3479 29.0236C10.2567 29.2473 10.105 29.4411 9.90974 29.5834C9.71451 29.7256 9.48351 29.8107 9.24265 29.829C9.00178 29.8473 8.76058 29.7981 8.5461 29.687L6.1261 28.417L3.7461 29.677C3.55808 29.7761 3.34863 29.8276 3.1361 29.827ZM6.1261 26.327C6.3353 26.3276 6.54122 26.3791 6.7261 26.477L8.1761 27.237L7.8961 25.617C7.85922 25.4097 7.87366 25.1965 7.93816 24.996C8.00265 24.7956 8.11524 24.614 8.2661 24.467L9.4361 23.327L7.8161 23.087C7.60358 23.061 7.4009 22.9824 7.22632 22.8585C7.05175 22.7345 6.91077 22.5691 6.8161 22.377L6.0961 20.907L5.3661 22.377C5.27142 22.5691 5.13044 22.7345 4.95587 22.8585C4.78129 22.9824 4.57861 23.061 4.3661 23.087L2.7461 23.327L3.9961 24.477C4.14695 24.624 4.25954 24.8056 4.32403 25.006C4.38853 25.2065 4.40297 25.4197 4.3661 25.627L4.0861 27.237L5.5361 26.477C5.71812 26.381 5.92033 26.3296 6.1261 26.327ZM24.7761 21.267C24.5253 21.2643 24.2787 21.2026 24.0561 21.087L18.9061 18.377L13.7561 21.087C13.4914 21.2247 13.1932 21.2846 12.8959 21.2598C12.5986 21.235 12.3143 21.1266 12.0761 20.947C11.8411 20.7707 11.6602 20.5319 11.5542 20.2579C11.4481 19.9839 11.421 19.6856 11.4761 19.397L12.4761 13.687L11.7061 12.937C11.5198 12.7497 11.4153 12.4962 11.4153 12.232C11.4153 11.9678 11.5198 11.7144 11.7061 11.527C11.8935 11.3408 12.1469 11.2362 12.4111 11.2362C12.6753 11.2362 12.9287 11.3408 13.1161 11.527L14.0561 12.437C14.2434 12.6194 14.3818 12.846 14.4587 13.0958C14.5356 13.3457 14.5485 13.6109 14.4961 13.867L13.6361 18.937L18.2261 16.517C18.454 16.3962 18.7081 16.333 18.9661 16.333C19.2241 16.333 19.4781 16.3962 19.7061 16.517L24.2961 18.937L23.4161 13.817C23.3719 13.5615 23.3917 13.2989 23.4737 13.0529C23.5557 12.8068 23.6974 12.5849 23.8861 12.407L27.5661 8.80702L22.3961 8.00702C22.1395 7.96935 21.896 7.86946 21.6868 7.71607C21.4776 7.56269 21.3092 7.36046 21.1961 7.12702L18.9061 2.52702L16.6161 7.17702C16.4963 7.39665 16.3275 7.58575 16.1229 7.72968C15.9183 7.87361 15.6833 7.96851 15.4361 8.00702L10.2861 8.74702L10.6261 9.08702C10.8123 9.27439 10.9169 9.52784 10.9169 9.79202C10.9169 10.0562 10.8123 10.3097 10.6261 10.497C10.5331 10.5908 10.4225 10.6651 10.3007 10.7159C10.1788 10.7667 10.0481 10.7928 9.9161 10.7928C9.78408 10.7928 9.65338 10.7667 9.53152 10.7159C9.40966 10.6651 9.29906 10.5908 9.2061 10.497L8.2761 9.57702C8.07828 9.37314 7.9387 9.11998 7.87187 8.84387C7.80504 8.56777 7.81341 8.2788 7.8961 8.00702C7.98583 7.72914 8.15129 7.48179 8.37387 7.29277C8.59646 7.10375 8.86734 6.98055 9.1561 6.93702L14.9161 6.10702L17.4961 0.877024C17.627 0.613626 17.8287 0.391981 18.0787 0.237036C18.3287 0.0820922 18.617 0 18.9111 0C19.2052 0 19.4935 0.0820922 19.7435 0.237036C19.9935 0.391981 20.1952 0.613626 20.3261 0.877024L22.8961 6.09702L28.6361 6.93702C28.9293 6.97476 29.2055 7.09554 29.4323 7.28512C29.6591 7.47471 29.827 7.72518 29.9161 8.00702C30.0113 8.29024 30.0243 8.59464 29.9535 8.88492C29.8827 9.1752 29.731 9.43946 29.5161 9.64702L25.3661 13.707L26.3661 19.427C26.4055 19.6556 26.3944 19.89 26.3336 20.1138C26.2728 20.3376 26.1638 20.5454 26.0142 20.7226C25.8646 20.8998 25.6781 21.0422 25.4676 21.1397C25.2572 21.2372 25.028 21.2875 24.7961 21.287L24.7761 21.267Z" fill="#27AE60"/>
</svg>
