<svg width="28" height="26" viewBox="0 0 28 26" fill="none" xmlns="http://www.w3.org/2000/svg">
<path d="M13.6707 25.6707C7.04332 25.6707 1.67073 20.2982 1.67073 13.6707C1.67073 7.04332 7.04332 1.67073 13.6707 1.67073C20.2981 1.67073 25.6707 7.04332 25.6707 13.6707C25.6707 20.2982 20.2981 25.6707 13.6707 25.6707ZM13.6707 23.004C18.8253 23.004 23.004 18.8254 23.004 13.6707C23.004 8.51607 18.8253 4.3374 13.6707 4.3374C8.51608 4.3374 4.3374 8.51607 4.3374 13.6707C4.3374 18.8254 8.51608 23.004 13.6707 23.004ZM15.004 13.6707H19.004V16.3374H12.3373V7.00407H15.004V13.6707ZM0 4.71404L4.71405 0L6.59967 1.88561L1.88563 6.59967L0 4.71404ZM22.6275 0L27.3415 4.71404L25.4559 6.59967L20.7417 1.88561L22.6275 0Z" fill="#27AE60"/>
</svg>
